:SAMPLES-PER-SECOND 30
:FULLY-SPECIFIED
:DEGREES
385
root  -26.8265 34.3786 -18.7524 -168.702 -37.2358 177.222
RightUpLeg  -6.84186 -37.1806 -8.69595
RightLeg  15.5593 -14.0093 -2.90975
RightFoot  5.96606 0.0979338 -1.27249
RightToes  -36.292 -0.18956 -0.293233
Spine  -1.6967 0.998902 0.329572
Spine1  -3.39802 2.14934 1.21715
HEad  -44.2739 21.8164 -11.8282
LeftShoulder1  -1.94126e-019 -3.10601e-018 -2.51263e-017
LeftArm  -6.10439 18.97 -84.222
LeftForeArm  34.1263 -34.1798 -5.64063
LeftHand  -0.455472 -2.5044 6.91298
RightShoulder  -4.96962e-017 0 -2.36833e-017
RightArm  -18.1502 -21.0106 68.0831
RightForeArm  54.1872 14.2407 1.25407
RightHand  -0.270605 -2.50658 -10.5618
LeftUpLeg  -23.0384 24.0929 -2.31139
LeftLeg  25.0641 21.666 8.22196
LeftFoot  3.73214 -0.0514537 1.74077
LeftToes  -16.679 2.03064e-006 1.83538e-008
386
root  -27.7952 34.2609 -18.5103 -168.521 -40.0566 176.35
RightUpLeg  -6.97935 -36.1867 -11.6023
RightLeg  20.4047 -16.5173 -4.87712
RightFoot  7.5039 0.175993 -2.05702
RightToes  -39.975 -0.218283 -0.314981
Spine  -1.61418 1.03156 0.033699
Spine1  -3.24465 2.18627 0.622289
HEad  -43.2152 19.3277 -10.6835
LeftShoulder1  -1.94126e-019 -3.10601e-018 -2.51263e-017
LeftArm  -4.34597 18.3482 -84.7702
LeftForeArm  35.0181 -32.5886 -5.1985
LeftHand  -0.458608 -2.79728 6.73019
RightShoulder  -4.96962e-017 0 -2.36833e-017
RightArm  -22.7105 -21.9567 67.7767
RightForeArm  57.4547 12.8519 1.3937
RightHand  -0.298139 -2.32609 -11.0163
LeftUpLeg  -22.7874 19.0122 -3.4728
LeftLeg  27.0283 23.5004 9.7621
LeftFoot  1.73409 -0.0121117 0.961897
LeftToes  -13.0726 2.03064e-006 1.83538e-008
387
root  -28.7967 34.23 -18.2927 -168.368 -42.6924 175.131
RightUpLeg  -7.38279 -34.8495 -14.826
RightLeg  26.4724 -18.3702 -7.5391
RightFoot  10.3947 0.373559 -3.45981
RightToes  -42.7599 -0.240898 -0.330176
Spine  -1.51403 1.25508 -0.348258
Spine1  -3.0547 2.58999 -0.137498
HEad  -41.7669 16.0629 -9.16362
LeftShoulder1  -1.94126e-019 -3.10601e-018 -2.51263e-017
LeftArm  -3.0155 17.5722 -85.0557
LeftForeArm  36.2047 -30.0178 -4.64987
LeftHand  -0.451701 -3.02352 6.4691
RightShoulder  -4.96962e-017 0 -2.36833e-017
RightArm  -27.4769 -23.4744 67.8175
RightForeArm  59.9034 11.7583 1.49021
RightHand  -0.306791 -2.37065 -11.5111
LeftUpLeg  -21.1283 16.379 -5.05186
LeftLeg  26.6641 23.5368 9.60896
LeftFoot  0.109553 -2.15678e-005 0.184383
LeftToes  -11.0657 2.03064e-006 1.83538e-008
388
root  -29.7042 34.2383 -18.1117 -168.525 -45.0808 174.929
RightUpLeg  -8.85963 -32.7592 -16.2111
RightLeg  32.7826 -20.052 -10.8028
RightFoot  11.8801 0.554379 -4.65989
RightToes  -32.5514 -0.161879 -0.269302
Spine  -1.57782 1.54833 -0.444132
Spine1  -3.18827 3.14199 -0.34032
HEad  -40.1144 12.8845 -7.7613
LeftShoulder1  -1.94126e-019 -3.10601e-018 -2.51263e-017
LeftArm  -3.24374 17.4108 -85.1128
LeftForeArm  37.4014 -27.7067 -4.42547
LeftHand  -0.427145 -2.92819 6.19407
RightShoulder  -4.96962e-017 0 -2.36833e-017
RightArm  -29.8083 -25.1549 67.8315
RightForeArm  59.7429 11.2761 1.52156
RightHand  -0.262457 -2.78056 -11.2727
LeftUpLeg  -19.6967 16.8792 -6.07718
LeftLeg  25.4688 21.1782 8.21338
LeftFoot  -1.69749 -0.0110275 -0.582792
LeftToes  -8.91005 2.03064e-006 1.83538e-008
389
root  -30.4906 34.2839 -17.9858 -168.947 -47.6057 175.409
RightUpLeg  -10.6746 -30.2785 -15.9412
RightLeg  37.3075 -17.1075 -11.0752
RightFoot  10.7935 0.412343 -3.71375
RightToes  -28.0793 -0.130921 -0.238397
Spine  -1.67022 1.61745 -0.385342
Spine1  -3.37807 3.25951 -0.23604
HEad  -38.894 10.4033 -6.71788
LeftShoulder1  -1.94126e-019 -3.10601e-018 -2.51263e-017
LeftArm  -4.41469 17.8564 -84.5094
LeftForeArm  37.3365 -26.1963 -4.31575
LeftHand  -0.39217 -2.68559 5.86009
RightShoulder  -4.96962e-017 0 -2.36833e-017
RightArm  -32.215 -26.0988 68.3316
RightForeArm  60.0701 10.8573 1.53656
RightHand  -0.253655 -2.78268 -10.8824
LeftUpLeg  -18.5323 16.6251 -6.3454
LeftLeg  24.51 19.3363 7.17602
LeftFoot  -3.04071 -0.031391 -1.02111
LeftToes  -7.00717 2.03064e-006 1.83538e-008
390
root  -31.1768 34.384 -17.9349 -169.684 -50.5547 176.359
RightUpLeg  -12.6091 -27.8081 -14.2021
RightLeg  40.5051 -11.9239 -8.81087
RightFoot  6.56784 0.12114 -1.4995
RightToes  -25.1366 -0.111905 -0.216784
Spine  -1.7159 1.41345 -0.22979
Spine1  -3.46765 2.84775 0.0843329
HEad  -38.2644 8.64608 -6.06878
LeftShoulder1  -1.94126e-019 -3.10601e-018 -2.51263e-017
LeftArm  -6.30617 18.7777 -83.4013
LeftForeArm  36.49 -25.3026 -4.22522
LeftHand  -0.390495 -2.22484 6.15498
RightShoulder  -4.96962e-017 0 -2.36833e-017
RightArm  -34.3869 -26.3884 69.2695
RightForeArm  60.7555 10.7399 1.53827
RightHand  -0.256783 -2.67727 -10.6063
LeftUpLeg  -17.1955 14.3606 -5.98886
LeftLeg  23.3817 18.9868 6.64127
LeftFoot  -3.76481 -0.0465609 -1.25505
LeftToes  -5.23518 2.03064e-006 1.83538e-008
391
root  -31.8054 34.5104 -17.9405 -170.432 -53.2287 177.321
RightUpLeg  -14.9403 -25.7459 -11.6419
RightLeg  43.3296 -10.6949 -8.76606
RightFoot  5.32239 0.0783988 -1.08308
RightToes  -25.458 -0.113927 -0.219192
Spine  -1.69575 1.2417 -0.158852
Spine1  -3.42302 2.50768 0.251811
HEad  -38.3209 7.12706 -5.47381
LeftShoulder1  -1.94126e-019 -3.10601e-018 -2.51263e-017
LeftArm  -7.80954 19.8367 -81.7166
LeftForeArm  34.913 -24.9268 -4.21382
LeftHand  -0.413531 -1.58659 7.05144
RightShoulder  -4.96962e-017 0 -2.36833e-017
RightArm  -34.3843 -26.5101 70.5473
RightForeArm  59.9801 11.4913 1.5092
RightHand  -0.267362 -2.46172 -10.2742
LeftUpLeg  -15.5013 11.2533 -5.5591
LeftLeg  21.5973 19.7409 6.22886
LeftFoot  -3.94438 -0.0524539 -1.36162
LeftToes  -3.98174 2.03064e-006 1.83538e-008
392
root  -32.4061 34.6307 -17.9765 -170.874 -55.0211 178.034
RightUpLeg  -17.7569 -23.694 -8.88472
RightLeg  45.2813 -10.9079 -9.56358
RightFoot  5.35889 0.0827 -1.15936
RightToes  -25.6349 -0.115376 -0.220898
Spine  -1.63816 1.23267 -0.204948
Spine1  -3.30745 2.49663 0.185141
HEad  -38.7979 5.89818 -4.90265
LeftShoulder1  -1.94126e-019 -3.10601e-018 -2.51263e-017
LeftArm  -9.61844 20.8666 -79.7298
LeftForeArm  33.212 -24.4065 -4.16701
LeftHand  -0.407237 -1.0553 7.47485
RightShoulder  -4.96962e-017 0 -2.36833e-017
RightArm  -31.8077 -26.4432 71.9545
RightForeArm  57.4468 13.1548 1.3571
RightHand  -0.261727 -2.35288 -9.69923
LeftUpLeg  -13.5629 8.5412 -5.36025
LeftLeg  19.0999 20.925 5.62268
LeftFoot  -3.87159 -0.0528677 -1.40251
LeftToes  -2.93025 2.03064e-006 1.83538e-008
393
root  -32.9956 34.7173 -18.0366 -171.164 -56.3895 178.649
RightUpLeg  -20.63 -21.4756 -6.06858
RightLeg  45.8993 -11.0992 -9.93517
RightFoot  5.27731 0.0817847 -1.17573
RightToes  -25.2926 -0.116581 -0.222308
Spine  -1.5509 1.16146 -0.281823
Spine1  -3.13504 2.36264 0.0552513
HEad  -39.3939 5.31487 -4.53076
LeftShoulder1  -1.94126e-019 -3.10601e-018 -2.51263e-017
LeftArm  -11.8333 21.6301 -77.6264
LeftForeArm  31.9945 -23.0433 -3.99209
LeftHand  -0.403737 -0.539861 8.01061
RightShoulder  -4.96962e-017 0 -2.36833e-017
RightArm  -28.7228 -25.8179 73.1896
RightForeArm  55.6258 14.9234 1.14404
RightHand  -0.3295 -1.46815 -9.62751
LeftUpLeg  -11.6777 7.25425 -5.25748
LeftLeg  16.4307 21.1047 4.65532
LeftFoot  -3.75549 -0.0494384 -1.34632
LeftToes  -3.011 2.03064e-006 1.83538e-008
394
root  -33.6036 34.7595 -18.1003 -171.171 -57.8558 178.923
RightUpLeg  -23.3171 -19.6605 -3.49969
RightLeg  45.2546 -11.2079 -9.80813
RightFoot  4.85306 0.0712125 -1.06214
RightToes  -25.3783 -0.11766 -0.223561
Spine  -1.47927 0.987733 -0.387644
Spine1  -2.99042 2.01651 -0.120436
HEad  -39.3052 4.87837 -4.56338
LeftShoulder1  -1.94126e-019 -3.10601e-018 -2.51263e-017
LeftArm  -13.7689 21.9776 -75.5641
LeftForeArm  31.8987 -20.3441 -3.58873
LeftHand  -0.428625 -0.467886 8.59752
RightShoulder  -4.96962e-017 0 -2.36833e-017
RightArm  -26.4128 -25.0922 74.1727
RightForeArm  54.9922 17.0055 1.07528
RightHand  -0.359645 -0.914072 -9.27781
LeftUpLeg  -9.82516 7.56197 -5.32727
LeftLeg  13.735 19.6313 3.40675
LeftFoot  -3.70429 -0.0438742 -1.19514
LeftToes  -3.78881 2.03064e-006 1.83538e-008
